<svg width="512" height="512" viewBox="0 0 512 512" fill="none" xmlns="http://www.w3.org/2000/svg">
<path d="M256 0C114.5 0 0 114.5 0 256C0 397.5 114.5 512 256 512C397.5 512 512 397.5 512 256C512 114.5 397.5 0 256 0ZM256 472C136.6 472 40 375.4 40 256C40 136.6 136.6 40 256 40C375.4 40 472 136.6 472 256C472 375.4 375.4 472 256 472Z" fill="#00662A"/>
<path d="M256 128.9C245 128.9 236 137.9 236 148.9V277.7C236 288.7 245 297.7 256 297.7C267 297.7 276 288.7 276 277.7V148.9C276 137.8 267 128.9 256 128.9Z" fill="#00662A"/>
<path d="M256 376.2C270.912 376.2 283 364.112 283 349.2C283 334.288 270.912 322.2 256 322.2C241.088 322.2 229 334.288 229 349.2C229 364.112 241.088 376.2 256 376.2Z" fill="#00662A"/>
</svg>
