<svg width="512" height="512" viewBox="0 0 512 512" fill="none" xmlns="http://www.w3.org/2000/svg">
<g clip-path="url(#clip0)">
<path d="M252.4 246.6C286.3 246.6 315.6 234.4 339.6 210.5C363.6 186.5 375.7 157.2 375.7 123.3C375.7 89.4 363.5 60.1 339.6 36.1C315.6 12.1 286.3 0 252.4 0C218.5 0 189.2 12.2 165.2 36.1C141.2 60 129 89.4 129 123.3C129 157.2 141.2 186.5 165.1 210.5C189.1 234.5 218.5 246.6 252.4 246.6ZM186.4 57.3C204.8 38.9 226.4 30 252.4 30C278.4 30 300 38.9 318.4 57.3C336.8 75.7 345.7 97.3 345.7 123.3C345.7 149.3 336.8 170.9 318.4 189.3C300 207.7 278.4 216.6 252.4 216.6C226.4 216.6 204.8 207.7 186.4 189.3C168 170.9 159.1 149.3 159.1 123.3C159 97.3 168 75.7 186.4 57.3Z" fill="white"/>
<path d="M468.1 393.7C467.4 383.7 466 372.8 464 361.3C461.9 349.7 459.2 338.8 456 328.8C452.7 318.5 448.2 308.2 442.6 298.5C436.8 288.3 430 279.5 422.4 272.2C414.4 264.6 404.7 258.5 393.4 254C382.2 249.6 369.7 247.3 356.4 247.3C351.2 247.3 346.1 249.4 336.4 255.8C330.4 259.7 323.4 264.2 315.5 269.3C308.8 273.6 299.7 277.6 288.5 281.2C277.6 284.7 266.4 286.5 255.5 286.5C244.5 286.5 233.4 284.7 222.5 281.2C211.3 277.6 202.2 273.6 195.5 269.3C187.7 264.3 180.7 259.8 174.6 255.8C164.8 249.4 159.8 247.3 154.6 247.3C141.3 247.3 128.8 249.6 117.6 254C106.3 258.5 96.6 264.6 88.6 272.2C81 279.5 74.2 288.3 68.4 298.5C62.8 308.3 58.3 318.5 55 328.8C51.8 338.8 49.1 349.7 47 361.3C44.9 372.8 43.5 383.7 42.9 393.7C42.2 403.5 41.9 413.7 41.9 423.9C41.9 450.6 50.4 472.3 67.2 488.2C83.8 504 105.7 512 132.3 512H378.8C405.4 512 427.3 504 443.9 488.3C460.7 472.4 469.2 450.7 469.2 424C469.2 413.6 468.8 403.5 468.1 393.7ZM423.2 466.5C412.3 476.9 397.8 482 378.8 482H132.3C113.4 482 98.9 476.9 87.9 466.5C77.2 456.3 72 442.4 72 423.9C72 414.3 72.3 404.8 72.9 395.7C73.5 386.8 74.8 377 76.7 366.6C78.5 356.3 80.9 346.7 83.7 337.9C86.4 329.5 90 321.2 94.6 313.2C98.9 305.6 103.9 299 109.4 293.8C114.5 288.9 121 284.8 128.7 281.8C135.8 279 143.7 277.5 152.3 277.2C153.4 277.8 155.2 278.8 158.3 280.8C164.5 284.8 171.6 289.4 179.4 294.4C188.3 300 199.7 305.2 213.3 309.6C227.2 314.1 241.5 316.4 255.6 316.4C269.7 316.4 283.9 314.1 297.9 309.6C311.5 305.2 323 300.1 331.8 294.4C339.8 289.3 346.8 284.8 352.9 280.8C355.9 278.8 357.8 277.8 358.9 277.2C367.5 277.4 375.5 279 382.5 281.8C390.1 284.8 396.6 288.9 401.8 293.8C407.3 299.1 412.3 305.6 416.6 313.2C421.1 321.2 424.8 329.5 427.5 337.9C430.3 346.7 432.7 356.3 434.5 366.6C436.4 377 437.6 386.8 438.3 395.7C438.9 404.8 439.3 414.2 439.3 423.8C439.2 442.4 433.9 456.3 423.2 466.5Z" fill="white"/>
</g>
<defs>
<clipPath id="clip0">
<rect width="512" height="512" fill="white"/>
</clipPath>
</defs>
</svg>
