<svg width="308" height="504" viewBox="0 0 308 504" fill="none" xmlns="http://www.w3.org/2000/svg">
<g clip-path="url(#clip0)">
<path d="M283.6 452.8L283.5 380.9C283.5 356.6 267.9 326.2 248.4 311.8L173.3 256.6V247.2L248.4 192C268 177.6 283.5 147.2 283.5 122.9V51.1999H283.6C296.6 51.1999 307.1 40.5999 307.1 27.5999V23.6999C307.1 10.6999 296.6 0.0999449 283.6 0.0999449H23.5999C10.5999 -5.50536e-05 -9.76548e-05 10.5999 -9.76548e-05 23.5999V27.4999C-9.76548e-05 40.4999 10.5999 51.0999 23.5999 51.0999L23.6999 123C23.6999 147.3 38.9999 177.6 58.5999 192L133.8 247.3V256.6L58.4999 311.9C38.8999 326.3 23.4999 356.6 23.4999 380.9V452.8C10.4999 452.8 -0.100098 463.4 -0.100098 476.4V480.3C-0.100098 493.3 10.4999 503.9 23.4999 503.9H283.4C296.4 503.9 306.9 493.3 306.9 480.3V476.4C307.1 463.4 296.6 452.8 283.6 452.8ZM267.7 452.8H248V391C248 373.1 236.7 350.6 222.3 340L158.4 292.9C155.6 290.8 151.9 290.8 149.1 292.9L84.8999 340.1C70.3999 350.7 59.0999 373.1 59.0999 391.1V452.9H39.3999V381C39.3999 361.8 52.4999 336 67.9999 324.7L146.5 267.1C148.5 265.6 149.7 263.3 149.7 260.8V243.5C149.7 241 148.6 238.6 146.5 237.2L67.9999 179.6C52.4999 168 39.3999 142.2 39.3999 123V51.1999H267.8V123C267.8 142.2 254.5 168 239.1 179.4L160.8 237C158.8 238.5 157.5 240.8 157.5 243.3V260.6C157.5 263.1 158.7 265.5 160.7 266.9L239 324.4C254.4 335.8 267.7 361.6 267.7 380.8V452.8Z" fill="#00662A"/>
<path d="M225.2 155.2C224.1 152 221.1 149.8 217.7 149.8H89.5C86.1 149.8 83.1 152 82 155.2C80.9 158.4 82.1 162 84.8 164L149.1 211.2C150.5 212.2 152.1 212.7 153.8 212.7C155.4 212.7 157.1 212.2 158.5 211.2L222.4 164.1C225.1 161.9 226.3 158.4 225.2 155.2Z" fill="#00662A"/>
</g>
<defs>
<clipPath id="clip0">
<rect width="307.1" height="504" fill="white"/>
</clipPath>
</defs>
</svg>
